/* XPM */
static char *d2635d1ee1af4d12fadeca93d34a4c43FeBYWdcdhcXcAvcO[] = {
/* columns rows colors chars-per-pixel */
"50 50 191 2 ",
"   c #020202",
".  c #060A03",
"X  c #070B09",
"o  c #11140E",
"O  c #090F11",
"+  c #121311",
"@  c #181D13",
"#  c #19260A",
"$  c #1E2C0E",
"%  c #202718",
"&  c #141D23",
"*  c #162327",
"=  c #29292A",
"-  c #2E3726",
";  c #313E24",
":  c #2E421B",
">  c #304717",
",  c #3F5D1C",
"<  c #364428",
"1  c #3C5827",
"2  c #294334",
"3  c #2C4939",
"4  c #334D3B",
"5  c #37543B",
"6  c #45691F",
"7  c #425E25",
"8  c #495C36",
"9  c #436324",
"0  c #4B6D25",
"q  c #45652C",
"w  c #4C6D2C",
"e  c #4E7528",
"r  c #4E742B",
"t  c #517A25",
"y  c #51762B",
"u  c #557E2D",
"i  c #456835",
"p  c #52693A",
"a  c #4F723E",
"s  c #577635",
"d  c #517C36",
"f  c #5A7E34",
"g  c #57703A",
"h  c #517C3C",
"j  c #5C7B3A",
"k  c #253844",
"l  c #344B4E",
"z  c #29475B",
"x  c #2B475C",
"c  c #314D59",
"v  c #355A54",
"b  c #35575A",
"n  c #3A5E5B",
"m  c #3C624A",
"M  c #3D6454",
"N  c #2A4C63",
"B  c #294E6B",
"V  c #344F63",
"C  c #3A5363",
"Z  c #385B64",
"A  c #35556B",
"S  c #3A566B",
"D  c #345B6C",
"F  c #2C5573",
"G  c #315671",
"H  c #345A74",
"J  c #3A5B74",
"K  c #345D7B",
"L  c #395E7B",
"P  c #3A646C",
"I  c #3D6877",
"U  c #37617D",
"Y  c #3C627D",
"T  c #484747",
"R  c #4A5259",
"E  c #5A5A5A",
"W  c #426745",
"Q  c #436C45",
"!  c #4D674B",
"~  c #436A4B",
"^  c #566742",
"/  c #596B45",
"(  c #4C7A59",
")  c #617D44",
"_  c #606F50",
"`  c #677B54",
"'  c #495E6C",
"]  c #435F73",
"[  c #526B6F",
"{  c #496578",
"}  c #5D717E",
"|  c #646565",
" . c #6E706A",
".. c #667077",
"X. c #7D7C7B",
"o. c #67851F",
"O. c #568227",
"+. c #55822F",
"@. c #59862A",
"#. c #5C8C2B",
"$. c #5F902D",
"%. c #5D8432",
"&. c #588438",
"*. c #63952C",
"=. c #669A2D",
"-. c #689E2E",
";. c #618935",
":. c #61843C",
">. c #679930",
",. c #6A9F32",
"<. c #6AA12F",
"1. c #6DA531",
"2. c #6FA831",
"3. c #70A730",
"4. c #72AC33",
"5. c #588843",
"6. c #658644",
"7. c #69854B",
"8. c #609543",
"9. c #71845D",
"0. c #366284",
"q. c #3B6584",
"w. c #3D6886",
"e. c #36668B",
"r. c #396789",
"t. c #37698D",
"y. c #3B6A8C",
"u. c #376B93",
"i. c #3C6D93",
"p. c #356E9B",
"a. c #386E98",
"s. c #3E7094",
"d. c #3A719C",
"f. c #426784",
"g. c #446983",
"h. c #4B6C85",
"j. c #436D8C",
"k. c #4E728B",
"l. c #567184",
"z. c #5C7282",
"x. c #51758F",
"c. c #406F91",
"v. c #4C7594",
"b. c #5B7B94",
"n. c #547C9C",
"m. c #627683",
"M. c #717F88",
"N. c #637E91",
"B. c #688397",
"V. c #6B889F",
"C. c #718696",
"Z. c #778C9A",
"A. c #7A91A2",
"S. c #7D97AA",
"D. c #838383",
"F. c #868D8F",
"G. c #8B918A",
"H. c #878F91",
"J. c #879094",
"K. c #8A959A",
"L. c #959798",
"P. c #999A9B",
"I. c #8296A3",
"U. c #8799A5",
"Y. c #919CA2",
"T. c #96A2A6",
"R. c #9CA3A4",
"E. c #94A1AB",
"W. c #9CA6AB",
"Q. c #9EA8AC",
"!. c #9DB0BE",
"~. c #A1A3A2",
"^. c #A5ABAB",
"/. c #A5AFB2",
"(. c #ACB2B4",
"). c #ABB4B6",
"_. c #B2B5B5",
"`. c #B6BAB8",
"'. c #B4BBBB",
"]. c #BDC1BF",
"[. c #A6B7C4",
"{. c #BFC5C2",
"}. c #C2C6C3",
"|. c #C4C9C6",
" X c #C8CBC7",
".X c #C6CBC9",
"XX c #CACECA",
"oX c #CDD2CE",
"OX c #CFD3D0",
"+X c #DDDFDF",
"@X c #FAF9FA",
/* pixels */
"4.4.4.4.4.4.4.4.2.4.4.4.4.4.4.4.4.4.4.4.4.4.4.4.4.4.4.4.4.4.4.4.4.4.3.4.4.4.4.4.4.4.4.4.4.4.4.4.4.4.",
"4.4.4.4.4.4.4.3.3.4.4.2.4.4.4.4.4.4.4.4.4.3.4.4.4.4.2.<.4.4.4.4.4.4.4.4.4.4.4.4.4.4.4.4.4.4.4.4.4.4.",
"4.4.4.4.4.2.4.=.-.4.4.4.4.4.4.4.4.4.4.4.3.-.@.0 s j g p s e O.*.=.=.2.4.4.4.4.4.4.4.4.4.4.4.4.4.4.4.",
"4.4.4.4.4.4.2.=.-.4.2.4.4.4.4.4.4.4.4.=.9 8 f %.;.;.;.) :.%.f j _ j >.4.4.4.4.4.4.4.4.4.4.4.4.4.4.4.",
"4.4.4.4.4.4.4.2.2.4.4.4.4.4.4.4.4.3.t w q %.%.%.%.%.%.f f %.;.@.6.7.) :.2.2.4.4.4.4.4.4.4.4.4.4.4.4.",
"4.4.4.4.4.2.4.4.4.4.4.4.4.4.4.4.1.t f ) j %.j j j ) %.f f %.;.;.@.7.:.:.5.1.4.4.4.4.4.4.4.4.4.4.4.4.",
"4.4.4.4.4.4.4.4.4.4.4.4.4.4.4.2.y j ) ` 7 $ o o + + @ - 8 ! ; > , e %.%.6.:.2.2.4.4.4.4.4.4.4.4.4.4.",
"4.4.4.4.4.4.4.4.4.4.4.4.4.4.2.*.: % & L O               X B X     . # $ < ^ 1.4.4.4.4.4.4.4.4.4.4.4.",
"4.4.4.4.4.4.4.4.4.4.4.4.4.4.<.<.-.*.3 s.k R E R = X   X * u.& o . . $ 6 O.t 1.4.4.4.4.4.2.4.4.4.4.4.",
"4.4.4.4.4.4.4.4.4.4.4.4.4.<.=.3.1.1.v i.{ +X@X@XXXP.L._.g.a.( 3.2.<.2.2.2.2.4.4.4.4.4.<.=.2.4.4.4.4.",
"4.4.4.4.4.4.4.4.4.4.4.4.4.<.=.2.4.<.5 i.n.G.9./ ^ / ^ / c i.! 4.4.4.4.4.4.4.4.4.4.4.4.<.<.<.4.4.4.4.",
"4.4.4.4.4.4.4.4.4.4.4.4.4.4.4.4.4.4.@.D g.k s f f ~ 1 7 H 0.e 2.4.4.4.4.4.4.4.4.4.4.4.2.4.4.4.4.4.4.",
"4.4.4.4.4.4.4.4.4.4.4.4.4.4.4.4.4.1.M y.i.i.Y n { i.V S i.i.v #.4.4.4.4.4.4.4.4.4.4.4.4.4.4.4.4.4.4.",
"4.4.4.4.4.4.4.4.4.4.4.4.4.4.4.4.4.W i.i.i.i.i.i.a.i.S y.u.y.i.5 <.4.4.4.4.4.4.4.4.4.4.4.4.4.4.4.4.4.",
"4.4.4.4.4.4.4.4.4.4.4.4.4.4.4.4.&.y.k.[.A.i.i.q.K 0.V 0.V._.x.L e 2.4.4.4.4.4.4.4.4.4.4.4.4.4.4.4.4.",
"4.4.4.4.4.4.4.4.4.4.4.4.4.4.4.2.n a.Y.P.W.i.q.l D.= k 0.^.D.Z.s.5 <.<.$.$.4.4.4.4.4.4.4.4.4.4.4.4.4.",
"1.2.=.1.4.4.4.4.4.4.4.4.2.2.*.9 Z 0.v.!.x.c.i.c.v.q.k 0.k.I.c.q.N 1 t @.=.2.4.4.4.4.4.4.4.4.4.4.2.<.",
"4.1.=.=.4.4.4.4.4.4.4.1.=.1.=.! g.0.i.a.i.i.i.i.i.i.z 0.a.u.a.e.K 2 O.t t @.2.4.4.4.4.4.4.4.4.4.2.=.",
"4.4.4.4.4.4.4.4.4.4.4.1.#.O.q C A J i.i.i.i.i.i.c.i.S f.d.p.p.u.K B e =.$.<.2.4.4.4.4.4.4.4.4.4.2.2.",
"4.4.4.4.4.4.4.4.4.4.4.4.4.*.5 A L K w.i.c.i.i.i.b.f.R | N.h.q.r.0.F 2 O.#.2.4.4.4.4.4.4.4.4.4.4.2.2.",
"4.4.4.4.4.4.4.4.4.4.4.4.4.q H y.a.c.a.i.i.i.i.r.q.z.| ..d.p.u.v.w.j.P $.2.2.4.4.4.4.4.4.4.4.4.4.4.4.",
"4.4.4.4.4.4.4.4.4.4.4.4.<.Z s.y.i.i.c.0.h.C.Y.^.~.X.D.z.d.p.p.p.p.d.U +.2.4.4.4.4.4.4.4.4.4.4.4.4.4.",
"4.4.4.4.4.4.4.4.4.4.4.4.d y.s.i.i.w.m.^. XXXY.^.OX| T ] p.p.p.p.p.p.d.m =.2.4.4.4.4.4.4.4.4.4.4.4.4.",
"4.4.4.4.4.4.4.4.4.4.4.2.P s.y.y.h.H.'.oXXXU.V.N.{. X~.M.u.p.p.p.p.p.p.P $.2.4.2.4.4.4.4.4.4.4.4.4.4.",
"4.4.4.4.4.4.4.4.4.4.4.e r.a.i.k.W.b.B.}.XX.XXXXX XXX.X[.h.a.a.p.p.p.p.t.+.2.4.4.4.4.4.4.4.4.4.4.4.4.",
"4.4.4.4.4.4.4.4.4.1.1.M c.i.y.Q.(.'..XXXOXXXOXXXOXOXoXoX~.q.a.p.p.p.p.p.Q 2.4.4.4.4.4.4.4.4.4.4.4.4.",
"4.4.4.4.4.4.4.4.4.4.8.y.y.s.l.|.XXoXoXoXXXOXXXOX/.U..XoXOXY.J a.p.p.p.p.m 1.2.4.4.4.4.4.4.4.4.4.4.4.",
"4.4.4.4.4.4.4.4.4.4.~ s.q.q./.oXoXoXXXA.S.XXOX'.f.n.M.oXXXN.0.N a.a.p.d.v 1.2.4.4.4.4.4.4.4.4.4.4.4.",
"4.4.4.4.4.4.4.4.1.=.b s.H m._.I..XoX/.Z.U.[.OX}.{.OX{.oX}.^.'.H.[ t.u.a.F $.4.4.4.4.4.4.4.2.4.4.4.4.",
"4.4.4.4.4.4.4.4.3.*.D i.N Y.N.N.^.oX}.XXXXoXOXOXoXoXoXoXOXoXoXOX.XQ.} w.u.#.4.4.4.4.4.4.2.<.2.4.4.4.",
"4.4.4.4.4.4.4.4.4.%.H y.S '.(.XXXXXXoXoXoXoXoXoXoXoXoXoXoXoXoXXXoXXX{.l.u.@.4.4.4.4.4.4.2.$.2.4.4.4.",
"4.4.4.4.4.4.4.4.4.%.Y 0.f.XXoXoXoXoXoXoXoXOXoXoXoXoXoXoXOXoXoXOXoXoXoXl.a.@.4.4.4.4.4.4.2.<.2.4.4.4.",
"4.4.4.4.4.4.4.4.4.,.Y r.{ XXoXoXOXoXoXoXoXoXoXoXoXoXoXoXOXoXoXoXoXoXoXC.t.+.1.2.4.4.4.4.4.4.4.4.4.4.",
"4.4.4.4.4.4.4.4.4.=.G L '  XoXoXoXoXoXOXoXOXoXoXoXOXoXoXoXoXoXoXoXOXoXS.e.+.2.2.4.4.4.4.4.4.4.4.4.4.",
"4.4.4.4.4.4.4.4.4.>.A G ' XXoXoXOXoXOXoXoXOXoXOXoXoXoXoXoXoXoXoXoXoXXX} t.+.4.4.4.4.4.4.4.4.4.4.4.4.",
"4.4.4.4.4.4.4.4.4.4.5 H C XXoXoXoXoXoXoXoXoXoXoXoXoXoXOXoXoXOXoXoXoX{.k.U @.4.4.4.4.4.4.4.4.4.4.4.4.",
"4.4.4.4.4.4.4.4.4.3.^ l z }.XXOXoXOXoXoXoXoXoXoXoXOXoXoXOXoXoXoXoXoX'.{ U <.4.4.4.4.4.4.4.4.4.4.4.4.",
"4.4.4.4.4.4.4.4.4.3.`  .x '.oXoXoXoXoXoXoXoXoXoXoXoXoXoXoXoXoXoXoXoX{.w.K <.4.4.4.4.4.4.4.4.4.4.4.4.",
"4.4.4.4.4.4.4.4.4.4.>.f G H.oXoXoXoXoXoXoXoXoXoXoXoXoXoXoXoXOXoXoXoXY.t.H 1.2.4.4.4.4.4.4.4.4.4.4.4.",
"4.4.4.4.4.4.4.4.4.4.3.1.w.] }.oXoXoXoXoXoXoXoXoXoXoXOXoXoXoXoXoXoXXXB.u.n 1.2.2.4.4.4.4.4.4.4.4.4.4.",
"4.4.4.4.1.=.4.4.4.4.4.4.[ e.K.oXoXoXoXoXoXoXoXoXoXoXoXoXoXoXoXoXoXQ.y.s.5.4.4.4.4.4.4.4.4.4.4.4.4.4.",
"4.4.2.4.=.=.2.4.4.4.4.4.5.i.I Y.oXoXoXoXoXoXoXoXoXoXoXoXoXoXoXOXT.v.s.y.8.4.4.4.4.4.4.4.4.4.4.4.2.2.",
"4.4.4.2.2.2.4.4.4.4.4.4.1.n s.Y H. XoXoXoXoXoXoXoXoXoXoXoXoXoXT.j.s.a.M 4.4.4.4.4.4.4.4.4.4.4.4.1.<.",
"4.4.4.4.4.4.4.4.4.4.4.4.3.r Y s.q.m.].oXoXoXoXoXoXoXoXoXoX].M.q.u.s.D 8.4.4.4.4.4.4.4.4.4.4.4.4.1.$.",
"4.4.4.4.4.4.4.4.4.4.4.4.4.1.m y.a.y.k.W.{.oXoXoXoXoXoX XR.z.r.a.p.t.&.4.4.4.4.4.4.4.4.4.4.4.4.4.4.2.",
"4.4.4.4.4.4.4.4.4.4.4.4.4.4.1.m i.a.a.r.H M.'. X X`.F.[ 0.a.a.p.0.m 2.4.4.4.4.4.4.4.4.4.4.4.4.4.4.4.",
"4.4.4.4.4.4.4.4.4.4.4.4.4.4.2.*.4 { j.f.r.a.y.S J Y e.i.s.n.v.x 9 1.2.4.4.4.4.4.4.4.4.4.4.4.4.4.4.4.",
"4.4.4.4.4.4.4.4.4.4.4.4.4.4.4.1.*.u y u d a a i 5.d h h 6.7.%.r 6 1.4.4.4.4.4.4.4.4.4.4.4.4.4.4.4.4.",
"4.4.4.4.4.4.4.4.4.4.4.4.4.4.4.4.4.4.4.4.4.4.4.4.4.4.4.4.4.4.4.4.2.4.4.4.4.4.4.4.4.4.4.4.4.4.4.4.4.4.",
"o.3.4.4.4.4.4.4.4.4.4.4.4.4.4.4.4.4.4.4.4.4.4.4.4.4.4.4.4.4.4.4.2.4.4.4.4.4.4.4.4.4.4.4.4.4.4.4.4.4."
};
